<?xml version="1.0" standalone="no"?>
<!DOCTYPE svg PUBLIC "-//W3C//DTD SVG 20010904//EN"
 "http://www.w3.org/TR/2001/REC-SVG-20010904/DTD/svg10.dtd">
<svg version="1.0" xmlns="http://www.w3.org/2000/svg"
 width="536.000000pt" height="437.000000pt" viewBox="0 0 536.000000 437.000000"
 preserveAspectRatio="xMidYMid meet">

<g transform="translate(0.000000,437.000000) scale(0.100000,-0.100000)"
fill="#201e23" stroke="none">
<path d="M3762 3782 c-9 -7 -12 -75 -10 -308 l3 -299 395 0 395 0 0 305 0 305
-385 2 c-212 2 -391 -1 -398 -5z m593 -142 c4 -7 -92 -10 -280 -10 -188 0
-284 3 -280 10 4 6 108 10 280 10 172 0 276 -4 280 -10z m95 0 c0 -5 -12 -10
-26 -10 -14 0 -23 4 -19 10 3 6 15 10 26 10 10 0 19 -4 19 -10z m70 0 c0 -5
-12 -10 -26 -10 -14 0 -23 4 -19 10 3 6 15 10 26 10 10 0 19 -4 19 -10z m-402
-67 c-60 -2 -156 -2 -215 0 -60 1 -11 3 107 3 118 0 167 -2 108 -3z m-301 -29
c-3 -3 -12 -4 -19 -1 -8 3 -5 6 6 6 11 1 17 -2 13 -5z m101 -1 c-10 -2 -26 -2
-35 0 -10 3 -2 5 17 5 19 0 27 -2 18 -5z m80 0 c-10 -2 -26 -2 -35 0 -10 3 -2
5 17 5 19 0 27 -2 18 -5z m90 0 c-10 -2 -26 -2 -35 0 -10 3 -2 5 17 5 19 0 27
-2 18 -5z m120 0 c-10 -2 -26 -2 -35 0 -10 3 -2 5 17 5 19 0 27 -2 18 -5z
m-391 -49 c-3 -3 -12 -4 -19 -1 -8 3 -5 6 6 6 11 1 17 -2 13 -5z m0 -40 c-3
-3 -12 -4 -19 -1 -8 3 -5 6 6 6 11 1 17 -2 13 -5z m461 -101 c-15 -2 -42 -2
-60 0 -18 2 -6 4 27 4 33 0 48 -2 33 -4z m200 0 c-21 -2 -57 -2 -80 0 -24 2
-7 4 37 4 44 0 63 -2 43 -4z m42 -63 c0 -6 -35 -10 -86 -10 -54 0 -83 4 -79
10 3 6 42 10 86 10 46 0 79 -4 79 -10z m-675 -60 c4 -6 -7 -10 -25 -10 -18 0
-29 4 -25 10 3 6 15 10 25 10 10 0 22 -4 25 -10z m420 0 c4 -7 -63 -10 -195
-10 -132 0 -199 3 -195 10 4 6 80 10 195 10 115 0 191 -4 195 -10z"/>
<path d="M367 3332 c-15 -17 -17 -76 -17 -644 0 -593 1 -626 18 -641 17 -16
118 -17 1254 -17 1184 0 1236 1 1251 18 15 17 17 76 17 644 0 593 -1 626 -18
641 -17 16 -118 17 -1254 17 -1184 0 -1236 -1 -1251 -18z m108 -92 l-29 -30
29 -30 c42 -43 21 -51 -22 -8 l-36 37 37 37 c43 43 63 38 21 -6z m203 -67
c-44 -44 -60 -39 -22 6 l27 32 -27 28 c-39 41 -18 47 23 6 l36 -35 -37 -37z
m-83 80 c-4 -10 -16 -42 -27 -70 -12 -29 -25 -53 -30 -53 -6 0 -7 8 -3 18 4 9
16 41 27 70 11 28 24 52 30 52 6 0 7 -8 3 -17z m185 -117 c0 -11 -19 -15 -25
-6 -3 5 1 10 9 10 9 0 16 -2 16 -4z m50 0 c0 -11 -19 -15 -25 -6 -3 5 1 10 9
10 9 0 16 -2 16 -4z m70 0 c0 -11 -19 -15 -25 -6 -3 5 1 10 9 10 9 0 16 -2 16
-4z m1390 -136 c0 -7 -314 -10 -921 -10 -611 0 -918 3 -914 10 9 14 1835 14
1835 0z m250 0 c0 -6 -34 -10 -81 -10 -51 0 -78 4 -74 10 3 6 40 10 81 10 43
0 74 -4 74 -10z m260 0 c0 -6 -40 -10 -101 -10 -64 0 -98 4 -94 10 3 6 48 10
101 10 56 0 94 -4 94 -10z m-1190 -140 c0 -7 -200 -10 -580 -10 -380 0 -580 3
-580 10 0 7 200 10 580 10 380 0 580 -3 580 -10z m370 0 c0 -6 -43 -10 -110
-10 -67 0 -110 4 -110 10 0 6 43 10 110 10 67 0 110 -4 110 -10z m-1470 -70
c0 -5 -13 -10 -30 -10 -16 0 -30 5 -30 10 0 6 14 10 30 10 17 0 30 -4 30 -10z
m240 0 c0 -6 -28 -10 -65 -10 -37 0 -65 4 -65 10 0 6 28 10 65 10 37 0 65 -4
65 -10z m200 0 c0 -6 -28 -10 -65 -10 -37 0 -65 4 -65 10 0 6 28 10 65 10 37
0 65 -4 65 -10z m200 0 c0 -6 -28 -10 -65 -10 -37 0 -65 4 -65 10 0 6 28 10
65 10 37 0 65 -4 65 -10z m200 0 c0 -6 -28 -10 -65 -10 -37 0 -65 4 -65 10 0
6 28 10 65 10 37 0 65 -4 65 -10z m630 0 c0 -6 -102 -10 -285 -10 -183 0 -285
4 -285 10 0 6 102 10 285 10 183 0 285 -4 285 -10z m-1470 -110 c0 -5 -13 -10
-30 -10 -16 0 -30 5 -30 10 0 6 14 10 30 10 17 0 30 -4 30 -10z m1855 0 c4 -7
-288 -10 -870 -10 -582 0 -874 3 -870 10 4 7 305 10 870 10 565 0 866 -3 870
-10z m340 0 c4 -6 -40 -10 -125 -10 -85 0 -129 4 -125 10 4 6 57 10 125 10 68
0 121 -4 125 -10z m-2195 -90 c0 -5 -13 -10 -30 -10 -16 0 -30 5 -30 10 0 6
14 10 30 10 17 0 30 -4 30 -10z m595 0 c4 -7 -80 -10 -245 -10 -165 0 -249 3
-245 10 4 6 97 10 245 10 148 0 241 -4 245 -10z m-595 -110 c0 -5 -13 -10 -30
-10 -16 0 -30 5 -30 10 0 6 14 10 30 10 17 0 30 -4 30 -10z m1890 0 c0 -6 -37
-10 -90 -10 -53 0 -90 4 -90 10 0 6 37 10 90 10 53 0 90 -4 90 -10z m-1295
-10 c4 -7 -80 -10 -245 -10 -165 0 -249 3 -245 10 4 6 97 10 245 10 148 0 241
-4 245 -10z m0 -90 c4 -7 -80 -10 -245 -10 -165 0 -249 3 -245 10 4 6 97 10
245 10 148 0 241 -4 245 -10z m1295 0 c0 -6 -77 -10 -210 -10 -133 0 -210 4
-210 10 0 6 77 10 210 10 133 0 210 -4 210 -10z m-1295 -110 c4 -7 -80 -10
-245 -10 -165 0 -249 3 -245 10 4 6 97 10 245 10 148 0 241 -4 245 -10z m1295
0 c0 -7 -172 -10 -495 -10 -323 0 -495 3 -495 10 0 7 172 10 495 10 323 0 495
-3 495 -10z"/>
<path d="M3058 3219 c-17 -9 -18 -56 -18 -762 0 -572 3 -756 12 -765 17 -17
1009 -17 1026 0 9 9 12 184 12 725 l0 713 -183 0 c-129 0 -187 4 -195 12 -7 7
-12 29 -12 50 l0 38 -312 0 c-194 0 -320 -4 -330 -11z m300 -106 c-49 -2 -127
-2 -175 0 -49 1 -9 3 87 3 96 0 136 -2 88 -3z m477 -73 c4 -7 -122 -10 -370
-10 -248 0 -374 3 -370 10 4 6 138 10 370 10 232 0 366 -4 370 -10z m120 0 c4
-6 -10 -10 -35 -10 -25 0 -39 4 -35 10 3 6 19 10 35 10 16 0 32 -4 35 -10z
m80 0 c4 -6 -7 -10 -25 -10 -18 0 -29 4 -25 10 3 6 15 10 25 10 10 0 22 -4 25
-10z m-515 -80 c0 -6 -79 -10 -216 -10 -141 0 -213 3 -209 10 4 6 87 10 216
10 133 0 209 -4 209 -10z m140 0 c0 -6 -29 -10 -66 -10 -41 0 -63 4 -59 10 3
6 33 10 66 10 33 0 59 -4 59 -10z m-525 -50 c4 -6 -5 -10 -20 -10 -15 0 -24 4
-20 10 3 6 12 10 20 10 8 0 17 -4 20 -10z m135 0 c0 -5 -18 -10 -41 -10 -24 0
-38 4 -34 10 3 6 22 10 41 10 19 0 34 -4 34 -10z m115 0 c4 -6 -10 -10 -35
-10 -25 0 -39 4 -35 10 3 6 19 10 35 10 16 0 32 -4 35 -10z m115 0 c0 -5 -18
-10 -41 -10 -24 0 -38 4 -34 10 3 6 22 10 41 10 19 0 34 -4 34 -10z m50 0 c0
-5 -5 -10 -11 -10 -5 0 -7 5 -4 10 3 6 8 10 11 10 2 0 4 -4 4 -10z m110 0 c0
-5 -21 -10 -46 -10 -27 0 -43 4 -39 10 3 6 24 10 46 10 21 0 39 -4 39 -10z
m-525 -60 c4 -6 -5 -10 -20 -10 -15 0 -24 4 -20 10 3 6 12 10 20 10 8 0 17 -4
20 -10z m740 0 c4 -7 -110 -10 -334 -10 -221 0 -341 4 -341 10 0 6 118 10 334
10 213 0 337 -4 341 -10z m150 0 c4 -6 -13 -10 -44 -10 -28 0 -51 5 -51 10 0
6 20 10 44 10 25 0 48 -4 51 -10z m-892 -57 c-7 -2 -19 -2 -25 0 -7 3 -2 5 12
5 14 0 19 -2 13 -5z m269 0 c-40 -2 -103 -2 -140 0 -37 2 -4 3 73 3 77 0 107
-2 67 -3z m-267 -53 c4 -6 -5 -10 -20 -10 -15 0 -24 4 -20 10 3 6 12 10 20 10
8 0 17 -4 20 -10z m760 0 c4 -6 -13 -10 -44 -10 -28 0 -51 5 -51 10 0 6 20 10
44 10 25 0 48 -4 51 -10z m0 -60 c4 -6 -35 -10 -109 -10 -71 0 -116 4 -116 10
0 6 43 10 109 10 63 0 112 -4 116 -10z m0 -60 c4 -7 -50 -10 -154 -10 -101 0
-161 4 -161 10 0 6 58 10 154 10 93 0 157 -4 161 -10z m-130 -60 c4 -6 -23
-10 -74 -10 -47 0 -81 4 -81 10 0 6 31 10 74 10 41 0 78 -4 81 -10z m270 0 c4
-6 -33 -10 -105 -10 -72 0 -109 4 -105 10 3 6 50 10 105 10 55 0 102 -4 105
-10z m-390 -80 c4 -7 -88 -10 -269 -10 -177 0 -276 4 -276 10 0 6 96 10 269
10 169 0 272 -4 276 -10z m390 0 c4 -6 -32 -10 -99 -10 -64 0 -106 4 -106 10
0 6 40 10 99 10 56 0 103 -4 106 -10z m-517 -77 c-75 -2 -201 -2 -280 0 -79 1
-17 3 137 3 154 0 218 -2 143 -3z m127 -63 c4 -7 -88 -10 -269 -10 -177 0
-276 4 -276 10 0 6 96 10 269 10 169 0 272 -4 276 -10z m-137 -427 c-76 -2
-200 -2 -275 0 -76 1 -14 3 137 3 151 0 213 -2 138 -3z m-333 -103 c4 -6 -12
-10 -40 -10 -28 0 -44 4 -40 10 3 6 21 10 40 10 19 0 37 -4 40 -10z m130 0 c4
-6 -10 -10 -35 -10 -25 0 -39 4 -35 10 3 6 19 10 35 10 16 0 32 -4 35 -10z
m130 0 c4 -6 -10 -10 -34 -10 -23 0 -41 5 -41 10 0 6 15 10 34 10 19 0 38 -4
41 -10z m130 0 c4 -6 -10 -10 -35 -10 -25 0 -39 4 -35 10 3 6 19 10 35 10 16
0 32 -4 35 -10z m130 0 c4 -6 -10 -10 -35 -10 -25 0 -39 4 -35 10 3 6 19 10
35 10 16 0 32 -4 35 -10z m130 0 c4 -6 -10 -10 -35 -10 -25 0 -39 4 -35 10 3
6 19 10 35 10 16 0 32 -4 35 -10z m100 0 c4 -6 -5 -10 -20 -10 -15 0 -24 4
-20 10 3 6 12 10 20 10 8 0 17 -4 20 -10z m-767 -57 c-10 -2 -28 -2 -40 0 -13
2 -5 4 17 4 22 1 32 -1 23 -4z m430 0 c-71 -2 -185 -2 -255 0 -71 1 -13 3 127
3 140 0 198 -2 128 -3z"/>
<path d="M1422 1663 l3 -38 63 -3 62 -3 0 41 0 40 -66 0 -65 0 3 -37z"/>
<path d="M1602 1663 l3 -38 65 0 65 0 0 35 0 35 -68 3 -68 3 3 -38z"/>
<path d="M1782 1663 l3 -38 65 0 65 0 0 35 0 35 -68 3 -68 3 3 -38z"/>
<path d="M1964 1686 c-3 -8 -4 -25 -2 -38 3 -21 8 -23 68 -23 l65 0 0 35 0 35
-63 3 c-48 2 -64 0 -68 -12z"/>
<path d="M2144 1686 c-3 -8 -4 -25 -2 -38 3 -21 8 -23 68 -23 l65 0 0 35 0 35
-63 3 c-48 2 -64 0 -68 -12z"/>
<path d="M2324 1686 c-3 -8 -4 -25 -2 -38 3 -21 8 -23 68 -23 l65 0 0 35 0 35
-63 3 c-48 2 -64 0 -68 -12z"/>
<path d="M2504 1686 c-3 -8 -4 -25 -2 -38 3 -21 8 -23 68 -23 l65 0 3 38 3 37
-66 0 c-48 0 -67 -4 -71 -14z"/>
<path d="M2684 1686 c-3 -8 -4 -25 -2 -38 3 -21 8 -23 68 -23 l65 0 3 38 3 37
-66 0 c-48 0 -67 -4 -71 -14z"/>
<path d="M2870 1660 l0 -40 58 0 c32 0 61 3 64 6 3 3 1 21 -5 40 -10 33 -12
34 -64 34 l-53 0 0 -40z"/>
<path d="M1420 1540 l0 -60 65 0 65 0 0 60 0 60 -65 0 -65 0 0 -60z"/>
<path d="M1600 1540 l0 -61 68 3 67 3 0 55 0 55 -67 3 -68 3 0 -61z"/>
<path d="M1780 1540 l0 -60 70 0 71 0 -3 58 -3 57 -67 3 -68 3 0 -61z"/>
<path d="M1960 1540 l0 -60 70 0 71 0 -3 58 -3 57 -67 3 -68 3 0 -61z"/>
<path d="M2147 1594 c-4 -4 -7 -31 -7 -61 l0 -53 70 0 71 0 -3 58 -3 57 -60 3
c-34 2 -64 0 -68 -4z"/>
<path d="M2327 1593 c-4 -3 -7 -30 -7 -60 l0 -53 70 0 70 0 0 60 0 60 -63 0
c-35 0 -67 -3 -70 -7z"/>
<path d="M2507 1593 c-4 -3 -7 -30 -7 -60 l0 -53 70 0 70 0 0 60 0 60 -63 0
c-35 0 -67 -3 -70 -7z"/>
<path d="M2684 1586 c-3 -7 -4 -33 -2 -57 l3 -44 68 -3 67 -3 0 61 0 60 -65 0
c-47 0 -67 -4 -71 -14z"/>
<path d="M2870 1540 l0 -60 65 0 65 0 0 60 0 60 -65 0 -65 0 0 -60z"/>
<path d="M3050 1540 l0 -60 65 0 65 0 0 60 0 60 -65 0 -65 0 0 -60z"/>
<path d="M3230 1540 l0 -60 155 0 155 0 0 60 0 60 -155 0 -155 0 0 -60z"/>
<path d="M1420 1390 l0 -61 158 3 157 3 0 55 0 55 -157 3 -158 3 0 -61z"/>
<path d="M1780 1390 l0 -60 70 0 71 0 -3 58 -3 57 -67 3 -68 3 0 -61z"/>
<path d="M1960 1390 l0 -60 70 0 71 0 -3 58 -3 57 -67 3 -68 3 0 -61z"/>
<path d="M2147 1444 c-4 -4 -7 -31 -7 -61 l0 -53 70 0 71 0 -3 58 -3 57 -60 3
c-34 2 -64 0 -68 -4z"/>
<path d="M2327 1443 c-4 -3 -7 -30 -7 -60 l0 -53 70 0 70 0 0 60 0 60 -63 0
c-35 0 -67 -3 -70 -7z"/>
<path d="M2507 1443 c-4 -3 -7 -30 -7 -60 l0 -53 70 0 70 0 0 60 0 60 -63 0
c-35 0 -67 -3 -70 -7z"/>
<path d="M2684 1436 c-3 -7 -4 -33 -2 -57 l3 -44 68 -3 67 -3 0 61 0 60 -65 0
c-47 0 -67 -4 -71 -14z"/>
<path d="M2870 1390 l0 -60 65 0 65 0 0 60 0 60 -65 0 -65 0 0 -60z"/>
<path d="M3050 1390 l0 -60 65 0 65 0 0 60 0 60 -65 0 -65 0 0 -60z"/>
<path d="M3230 1390 l0 -59 88 -3 87 -3 5 -80 5 -80 60 0 60 0 3 143 3 142
-156 0 -155 0 0 -60z"/>
<path d="M1422 1228 l3 -63 63 -3 62 -3 0 66 0 65 -65 0 -66 0 3 -62z"/>
<path d="M1602 1228 l3 -63 65 0 65 0 0 60 0 60 -68 3 -68 3 3 -63z"/>
<path d="M1782 1228 l3 -63 65 0 65 0 0 60 0 60 -68 3 -68 3 3 -63z"/>
<path d="M1964 1277 c-3 -8 -4 -36 -2 -63 l3 -49 65 0 65 0 0 60 0 60 -63 3
c-47 2 -64 -1 -68 -11z"/>
<path d="M2144 1277 c-3 -8 -4 -36 -2 -63 l3 -49 65 0 65 0 0 60 0 60 -63 3
c-47 2 -64 -1 -68 -11z"/>
<path d="M2324 1277 c-3 -8 -4 -36 -2 -63 l3 -49 65 0 65 0 0 60 0 60 -63 3
c-47 2 -64 -1 -68 -11z"/>
<path d="M2504 1276 c-3 -7 -4 -35 -2 -62 l3 -49 65 0 65 0 3 63 3 62 -66 0
c-46 0 -67 -4 -71 -14z"/>
<path d="M2684 1277 c-3 -8 -4 -36 -2 -63 l3 -49 65 0 65 0 0 60 0 60 -63 3
c-47 2 -64 -1 -68 -11z"/>
<path d="M2870 1225 l0 -66 63 3 62 3 3 63 3 62 -66 0 -65 0 0 -65z"/>
<path d="M3050 1225 l0 -66 63 3 62 3 3 63 3 62 -66 0 -65 0 0 -65z"/>
<path d="M3230 1225 l0 -66 63 3 62 3 3 63 3 62 -66 0 -65 0 0 -65z"/>
<path d="M1427 1123 c-4 -3 -7 -33 -7 -65 l0 -58 65 0 65 0 0 65 0 65 -58 0
c-32 0 -62 -3 -65 -7z"/>
<path d="M1604 1117 c-3 -8 -4 -36 -2 -63 l3 -49 65 0 65 0 0 60 0 60 -63 3
c-47 2 -64 -1 -68 -11z"/>
<path d="M1784 1117 c-3 -8 -4 -36 -2 -63 l3 -49 65 0 65 0 0 60 0 60 -63 3
c-47 2 -64 -1 -68 -11z"/>
<path d="M1964 1117 c-3 -8 -4 -36 -2 -63 l3 -49 65 0 65 0 0 60 0 60 -63 3
c-47 2 -64 -1 -68 -11z"/>
<path d="M2144 1117 c-3 -8 -4 -36 -2 -63 l3 -49 65 0 65 0 0 60 0 60 -63 3
c-47 2 -64 -1 -68 -11z"/>
<path d="M2324 1117 c-3 -8 -4 -36 -2 -63 l3 -49 65 0 65 0 0 60 0 60 -63 3
c-47 2 -64 -1 -68 -11z"/>
<path d="M2504 1117 c-3 -8 -4 -36 -2 -63 l3 -49 65 0 65 0 0 60 0 60 -63 3
c-47 2 -64 -1 -68 -11z"/>
<path d="M2684 1117 c-3 -8 -4 -36 -2 -63 l3 -49 65 0 65 0 0 60 0 60 -63 3
c-47 2 -64 -1 -68 -11z"/>
<path d="M2870 1065 l0 -65 65 0 66 0 -3 63 -3 62 -62 3 -63 3 0 -66z"/>
<path d="M3050 1065 l0 -65 65 0 66 0 -3 63 -3 62 -62 3 -63 3 0 -66z"/>
<path d="M3230 1065 l0 -65 65 0 65 0 0 65 0 65 -65 0 -65 0 0 -65z"/>
<path d="M3410 1065 l0 -65 65 0 65 0 0 65 0 65 -65 0 -65 0 0 -65z"/>
<path d="M1427 964 c-4 -4 -7 -34 -7 -66 l0 -58 65 0 66 0 -3 63 -3 62 -55 3
c-31 2 -59 0 -63 -4z"/>
<path d="M1607 963 c-4 -3 -7 -33 -7 -65 l0 -59 68 3 67 3 3 39 c2 22 1 50 -2
63 -6 21 -12 23 -65 23 -32 0 -61 -3 -64 -7z"/>
<path d="M1787 964 c-4 -4 -7 -34 -7 -66 l0 -59 68 3 67 3 0 60 0 60 -60 3
c-34 2 -64 0 -68 -4z"/>
<path d="M1967 964 c-4 -4 -7 -34 -7 -66 l0 -59 68 3 67 3 0 60 0 60 -60 3
c-34 2 -64 0 -68 -4z"/>
<path d="M2144 956 c-3 -7 -4 -35 -2 -62 l3 -49 428 -3 428 -2 -3 62 -3 63
-423 3 c-353 2 -423 0 -428 -12z"/>
<path d="M3057 964 c-4 -4 -7 -34 -7 -66 l0 -58 65 0 66 0 -3 63 -3 62 -55 3
c-31 2 -59 0 -63 -4z"/>
<path d="M3237 964 c-4 -4 -7 -34 -7 -66 l0 -58 65 0 66 0 -3 63 -3 62 -55 3
c-31 2 -59 0 -63 -4z"/>
<path d="M3417 964 c-4 -4 -7 -34 -7 -66 l0 -58 65 0 66 0 -3 63 -3 62 -55 3
c-31 2 -59 0 -63 -4z"/>
</g>
</svg>
