<?xml version="1.0" standalone="no"?>
<!DOCTYPE svg PUBLIC "-//W3C//DTD SVG 20010904//EN"
 "http://www.w3.org/TR/2001/REC-SVG-20010904/DTD/svg10.dtd">
<svg version="1.0" xmlns="http://www.w3.org/2000/svg"
 width="808.000000pt" height="583.000000pt" viewBox="0 0 808.000000 583.000000"
 preserveAspectRatio="xMidYMid meet">

<g transform="translate(0.000000,583.000000) scale(0.100000,-0.100000)"
fill="#ccc" stroke="none">
<path d="M4245 5253 c-65 -14 -115 -36 -115 -50 0 -17 7 -16 105 11 62 16 71
53 10 39z"/>
<path d="M4406 5243 c-11 -11 -6 -33 8 -33 7 0 39 -14 71 -31 31 -17 60 -28
63 -24 10 10 -13 39 -41 53 -56 28 -95 41 -101 35z"/>
<path d="M4003 5118 c-30 -33 -63 -90 -63 -110 0 -25 27 -23 35 2 4 11 22 41
41 66 31 40 37 64 15 64 -4 0 -17 -10 -28 -22z"/>
<path d="M4620 5076 c0 -12 15 -46 59 -135 11 -22 26 -12 24 15 -5 59 -83 172
-83 120z"/>
<path d="M4183 5024 c-96 -34 -172 -140 -130 -181 14 -14 20 -14 64 8 43 21
48 27 46 54 l-2 30 149 0 149 0 3 -35 c3 -29 10 -38 46 -58 58 -32 76 -24 70
32 -8 69 -58 119 -150 152 -52 18 -191 17 -245 -2z"/>
<path d="M495 4977 c-33 -8 -51 -18 -53 -30 -4 -20 -1 -20 106 1 46 10 84 22
85 27 3 14 -80 15 -138 2z"/>
<path d="M775 4970 c-9 -15 1 -27 32 -35 15 -3 51 -18 80 -31 29 -14 58 -22
63 -19 18 11 -5 30 -68 58 -78 34 -99 40 -107 27z"/>
<path d="M244 4861 c-62 -48 -91 -88 -75 -104 9 -9 21 -1 49 30 20 22 52 51
70 63 31 21 38 40 16 47 -5 1 -32 -15 -60 -36z"/>
<path d="M3904 4879 c-7 -11 3 -119 13 -145 3 -8 12 -14 20 -14 12 0 14 8 9
38 -3 20 -6 56 -6 78 0 41 -21 66 -36 43z"/>
<path d="M4677 4783 c-13 -59 -14 -79 -5 -84 18 -11 24 -4 37 45 15 62 14 116
-2 116 -9 0 -20 -28 -30 -77z"/>
<path d="M1050 4789 c0 -7 17 -39 38 -73 21 -34 41 -69 45 -78 7 -20 22 -23
32 -8 7 11 -22 70 -64 128 -30 41 -51 54 -51 31z"/>
<path d="M5385 4759 c-53 -28 -102 -75 -126 -121 -17 -33 -19 -64 -19 -386 -1
-299 1 -355 15 -388 25 -62 59 -98 118 -128 48 -24 69 -28 144 -29 l88 -2 5
-113 5 -112 76 67 c94 84 126 112 162 140 28 22 32 22 419 23 356 0 395 2 432
19 50 22 100 71 126 126 19 39 20 62 20 381 -1 365 -3 382 -55 449 -14 20 -45
48 -68 63 l-42 27 -630 2 c-621 2 -631 2 -670 -18z m1080 -299 l0 -25 -409 -5
c-438 -5 -459 -3 -436 41 11 19 23 19 428 17 l417 -3 0 -25z m3 -204 c9 -45
-9 -46 -426 -46 -216 1 -399 3 -407 7 -15 5 -21 44 -8 56 4 4 194 6 422 5 402
-3 416 -4 419 -22z m-530 -215 c2 -13 -2 -28 -10 -32 -7 -5 -75 -9 -150 -9
-111 0 -140 3 -152 16 -12 12 -13 20 -5 35 9 18 20 19 162 17 152 -3 152 -3
155 -27z m266 6 c16 -27 -17 -47 -78 -47 -74 0 -96 8 -96 34 0 34 8 37 88 34
60 -2 77 -7 86 -21z m261 12 c4 -5 4 -21 1 -35 -6 -23 -10 -24 -80 -24 -80 0
-103 13 -91 50 6 18 15 20 85 20 45 0 82 -5 85 -11z"/>
<path d="M94 4604 c-7 -26 1 -119 12 -148 3 -9 13 -16 21 -16 12 0 14 8 9 38
-3 20 -6 63 -6 95 0 44 -3 57 -15 57 -8 0 -18 -12 -21 -26z"/>
<path d="M3990 4619 c-12 -8 -4 -20 43 -64 55 -52 93 -71 85 -42 -2 6 -28 35
-58 64 -42 39 -59 49 -70 42z"/>
<path d="M4579 4584 c-13 -14 -38 -34 -56 -45 -33 -20 -45 -49 -20 -49 23 0
112 75 115 98 4 29 -9 28 -39 -4z"/>
<path d="M1198 4495 c-3 -3 5 -47 17 -98 14 -64 26 -92 36 -92 17 0 15 38 -9
126 -16 57 -30 78 -44 64z"/>
<path d="M4215 4470 c-10 -17 46 -31 109 -28 46 2 61 7 61 18 0 12 -17 15 -82
17 -45 2 -85 -2 -88 -7z"/>
<path d="M175 4300 c-3 -5 2 -22 12 -37 28 -45 94 -123 104 -123 14 0 10 36
-6 50 -8 6 -30 36 -50 66 -36 54 -48 63 -60 44z"/>
<path d="M1256 4162 c-3 -4 -2 -50 1 -100 4 -69 9 -92 20 -92 11 0 13 19 11
97 -2 62 -7 98 -15 100 -6 2 -14 0 -17 -5z"/>
<path d="M400 4048 c0 -18 131 -98 160 -98 28 0 4 29 -50 58 -33 18 -62 37
-65 43 -9 13 -45 11 -45 -3z"/>
<path d="M2622 4041 c41 -98 65 -141 78 -141 8 0 83 11 165 24 83 14 233 37
335 51 102 15 186 28 188 30 3 3 -159 13 -428 25 -118 6 -243 12 -278 15 -35
2 -62 1 -60 -4z"/>
<path d="M3685 3959 c-72 -24 -637 -196 -819 -250 -70 -21 -131 -40 -134 -44
-3 -3 12 -24 35 -46 l41 -41 388 162 c214 90 427 178 474 197 118 48 125 58
15 22z"/>
<path d="M697 3906 c-8 -20 -6 -21 92 -46 58 -15 87 -18 94 -11 15 15 8 19
-74 42 -41 11 -81 22 -90 25 -9 2 -19 -2 -22 -10z"/>
<path d="M2155 3868 c-112 -15 -125 -19 -125 -33 0 -18 30 -19 120 -4 69 11
84 18 72 34 -5 7 -28 8 -67 3z"/>
<path d="M1020 3828 c0 -16 20 -21 138 -34 53 -6 62 -4 62 9 0 23 -5 24 -108
32 -78 7 -92 5 -92 -7z"/>
<path d="M1712 3819 c-34 -13 -17 -29 31 -29 80 0 147 12 147 26 0 11 -18 14
-77 13 -43 0 -88 -4 -101 -10z"/>
<path d="M1365 3809 c-14 -22 14 -30 101 -27 71 2 89 6 89 18 0 12 -18 16 -92
18 -60 2 -94 -1 -98 -9z"/>
<path d="M1272 3553 c2 -79 6 -98 18 -98 12 0 16 19 18 98 3 92 2 97 -18 97
-20 0 -21 -5 -18 -97z"/>
<path d="M4834 3434 c-34 -35 -36 -40 -31 -87 6 -69 47 -107 113 -107 39 0 51
5 80 34 29 29 34 41 34 81 0 40 -5 52 -34 81 -29 29 -41 34 -80 34 -39 0 -50
-5 -82 -36z"/>
<path d="M1300 3292 c0 -48 39 -162 55 -162 20 0 19 10 -9 105 -24 82 -46 109
-46 57z"/>
<path d="M4754 3166 c-42 -19 -82 -73 -90 -124 l-7 -42 258 0 258 0 -6 42 c-6
48 -30 84 -77 116 -30 20 -44 22 -169 22 -92 -1 -146 -5 -167 -14z"/>
<path d="M6646 3095 c-50 -14 -85 -39 -73 -51 4 -4 33 0 64 9 32 9 67 18 78
19 11 2 20 10 20 18 0 20 -29 22 -89 5z"/>
<path d="M6844 3088 c-4 -6 -3 -13 2 -15 5 -2 39 -18 76 -37 37 -18 70 -31 73
-28 15 15 0 33 -47 55 -75 35 -95 40 -104 25z"/>
<path d="M1415 3000 c-3 -5 -1 -20 6 -32 21 -40 93 -138 100 -138 23 0 14 28
-30 94 -54 80 -66 92 -76 76z"/>
<path d="M6421 2928 c-23 -33 -40 -66 -38 -71 7 -23 27 -16 43 15 9 18 28 47
40 64 27 35 30 54 10 54 -8 0 -33 -28 -55 -62z"/>
<path d="M7070 2927 c0 -7 9 -30 19 -51 11 -20 24 -50 30 -67 10 -29 25 -37
36 -19 9 15 -55 150 -71 150 -8 0 -14 -6 -14 -13z"/>
<path d="M6953 2863 c-8 -2 -13 -22 -13 -44 0 -39 0 -39 40 -39 39 0 40 1 40
33 0 48 -26 67 -67 50z"/>
<path d="M6620 2795 c0 -33 2 -35 35 -35 33 0 35 2 35 35 0 33 -2 35 -35 35
-33 0 -35 -2 -35 -35z"/>
<path d="M6738 2803 c7 -3 16 -2 19 1 4 3 -2 6 -13 5 -11 0 -14 -3 -6 -6z"/>
<path d="M6520 2766 c-1 -3 -1 -63 -2 -133 l0 -128 233 -3 c179 -2 234 1 241
10 10 17 11 258 0 258 -4 0 -22 -13 -40 -30 -18 -16 -36 -30 -40 -30 -4 0 -29
-20 -57 -45 -27 -24 -53 -45 -57 -46 -56 -8 -125 11 -113 32 4 5 -3 9 -15 9
-12 0 -18 5 -15 10 3 6 1 10 -6 10 -7 0 -39 21 -71 46 -32 25 -58 43 -58 40z"/>
<path d="M1622 2728 c8 -23 128 -118 148 -118 32 0 23 15 -33 58 -30 22 -61
47 -70 56 -19 19 -50 21 -45 4z"/>
<path d="M6353 2724 c-6 -16 3 -111 13 -138 3 -9 13 -16 20 -16 12 0 13 10 9
48 -4 26 -8 61 -10 77 -1 17 -3 33 -4 38 -2 13 -22 7 -28 -9z"/>
<path d="M7136 2708 c-3 -7 -7 -31 -9 -53 -3 -22 -9 -55 -13 -74 -6 -29 -5
-33 12 -29 15 2 22 19 33 70 7 37 11 74 8 82 -8 19 -26 21 -31 4z"/>
<path d="M1902 2543 c3 -18 152 -86 173 -79 28 8 1 30 -75 61 -98 40 -103 41
-98 18z"/>
<path d="M5332 2348 c3 -128 5 -153 18 -153 13 0 15 23 15 150 0 135 -2 150
-18 153 -16 3 -17 -7 -15 -150z"/>
<path d="M6435 2470 c-8 -14 21 -50 73 -90 35 -27 45 -31 52 -20 6 10 -3 24
-33 50 -23 19 -48 43 -56 53 -17 19 -27 21 -36 7z"/>
<path d="M2222 2444 c3 -16 18 -21 92 -32 55 -7 93 -9 99 -3 18 18 -3 28 -68
35 -36 4 -79 9 -96 13 -27 5 -31 3 -27 -13z"/>
<path d="M7010 2427 c-19 -17 -46 -39 -60 -49 -19 -12 -22 -19 -14 -28 9 -9
17 -9 34 0 35 19 100 81 100 96 0 23 -23 16 -60 -19z"/>
<path d="M2562 2413 c4 -21 56 -28 136 -18 35 4 52 11 52 21 0 11 -19 14 -96
14 -86 0 -95 -2 -92 -17z"/>
<path d="M3154 2376 l-34 -34 0 -383 c0 -211 3 -393 6 -404 3 -11 20 -31 37
-45 30 -24 36 -25 224 -28 l193 -4 0 -54 0 -54 -35 0 c-33 0 -35 -2 -35 -35
l0 -35 250 0 250 0 0 90 0 90 35 0 35 0 0 -564 c0 -396 3 -573 11 -597 7 -19
24 -44 38 -56 l26 -22 586 -1 587 0 30 35 c20 21 33 50 37 77 3 24 5 394 3
823 -3 841 0 798 -56 840 -26 19 -45 20 -464 23 l-438 3 0 149 0 149 -34 35
-33 36 -593 0 -592 0 -34 -34z m1204 -48 c8 -8 12 -56 12 -150 l0 -138 -98 0
c-87 0 -101 -3 -134 -25 -43 -29 -58 -70 -58 -157 l0 -58 -450 0 -450 0 0 251
c0 153 4 258 10 270 10 18 27 19 583 19 432 0 576 -3 585 -12z m954 -375 c17
-15 18 -54 18 -810 0 -528 -3 -801 -10 -814 -10 -18 -27 -19 -578 -19 -429 0
-571 3 -580 12 -9 9 -12 203 -12 812 0 730 1 801 17 818 15 17 46 18 571 18
503 0 557 -2 574 -17z m-1482 -318 c0 -33 -2 -35 -35 -35 -33 0 -35 2 -35 35
0 33 2 35 35 35 33 0 35 -2 35 -35z m110 -210 l0 -55 -145 0 -145 0 0 55 0 55
145 0 145 0 0 -55z"/>
<path d="M3273 2270 c-22 -9 -23 -14 -22 -117 0 -90 2 -103 11 -78 27 73 105
166 162 191 29 13 27 13 -49 13 -44 0 -90 -4 -102 -9z"/>
<path d="M4590 1885 c0 -34 1 -35 40 -35 39 0 40 1 40 35 0 34 -1 35 -40 35
-39 0 -40 -1 -40 -35z"/>
<path d="M4710 1885 l0 -35 65 0 65 0 0 35 0 35 -65 0 -65 0 0 -35z"/>
<path d="M4220 1235 l0 -565 515 0 515 0 0 565 0 565 -515 0 -515 0 0 -565z"/>
<path d="M4660 485 l0 -105 100 0 100 0 0 105 0 105 -100 0 -100 0 0 -105z
m130 0 c0 -32 -2 -35 -30 -35 -28 0 -30 3 -30 35 0 32 2 35 30 35 28 0 30 -3
30 -35z"/>
<path d="M5260 541 c0 -18 -85 -90 -136 -116 -82 -42 -72 -55 39 -55 59 0 97
4 105 12 15 15 17 168 2 168 -5 0 -10 -4 -10 -9z"/>
<path d="M4190 460 c0 -86 6 -90 124 -90 101 0 110 12 39 50 -27 14 -66 44
-89 68 -60 63 -74 58 -74 -28z"/>
<path d="M6660 2320 c0 -18 51 -31 109 -28 44 2 57 7 59 21 3 15 -6 17 -82 17
-52 0 -86 -4 -86 -10z"/>
<path d="M5577 2192 c-59 -59 -107 -111 -107 -115 0 -26 47 7 137 97 90 90
114 126 85 126 -4 0 -56 -48 -115 -108z"/>
<path d="M5600 1940 c0 -20 4 -20 153 -18 127 3 152 5 152 18 0 13 -25 15
-152 18 -149 2 -153 2 -153 -18z"/>
</g>
</svg>
