<?xml version="1.0" standalone="no"?>
<!DOCTYPE svg PUBLIC "-//W3C//DTD SVG 20010904//EN"
 "http://www.w3.org/TR/2001/REC-SVG-20010904/DTD/svg10.dtd">
<svg version="1.0" xmlns="http://www.w3.org/2000/svg"
 width="344.000000pt" height="336.000000pt" viewBox="0 0 344.000000 336.000000"
 preserveAspectRatio="xMidYMid meet">
<metadata>
Created by potrace 1.16, written by Peter Selinger 2001-2019
</metadata>
<g transform="translate(0.000000,336.000000) scale(0.100000,-0.100000)"
fill="#201e23" stroke="none">
<path d="M1540 2789 c-311 -32 -606 -142 -821 -305 l-57 -43 -4 126 c-4 122
-5 126 -32 149 -34 30 -94 32 -127 5 l-24 -19 -3 -411 -3 -411 660 2 c618 3
660 4 679 21 27 25 35 71 18 112 -11 26 -23 36 -53 44 -25 7 -227 11 -575 11
l-538 0 0 59 0 59 64 59 c262 246 662 377 1096 360 408 -17 739 -152 990 -407
229 -231 301 -518 205 -810 -73 -221 -283 -438 -558 -576 -255 -129 -609 -181
-934 -139 -338 45 -611 167 -823 371 -47 45 -95 85 -108 88 -29 10 -90 -11
-102 -34 -6 -10 -10 -35 -10 -55 0 -30 9 -46 53 -92 187 -199 458 -350 762
-426 411 -103 877 -58 1238 118 263 129 496 342 606 555 73 141 102 265 102
435 0 260 -81 465 -262 660 -343 372 -868 552 -1439 494z"/>
</g>
</svg>
