<?xml version="1.0" standalone="no"?>
<!DOCTYPE svg PUBLIC "-//W3C//DTD SVG 20010904//EN"
 "http://www.w3.org/TR/2001/REC-SVG-20010904/DTD/svg10.dtd">
<svg version="1.0" xmlns="http://www.w3.org/2000/svg"
 width="268.000000pt" height="291.000000pt" viewBox="0 0 268.000000 291.000000"
 preserveAspectRatio="xMidYMid meet">

<g transform="translate(0.000000,291.000000) scale(0.100000,-0.100000)"
fill="#000000" stroke="none">
<path d="M496 2239 c-17 -13 -26 -30 -26 -47 l1 -27 13 31 c15 33 33 44 72 44
13 0 24 5 24 10 0 18 -57 11 -84 -11z"/>
<path d="M2060 1755 l0 -195 -150 0 -150 0 0 -65 0 -65 255 0 255 0 0 260 0
260 -105 0 -105 0 0 -195z"/>
<path d="M1286 1843 c-2 -10 -14 -70 -26 -133 -11 -63 -23 -123 -26 -132 -5
-16 -21 -18 -145 -18 l-140 0 15 -22 c9 -12 16 -42 16 -65 l0 -43 256 2 257 3
38 190 c21 105 41 200 44 213 l5 22 -144 0 c-129 0 -145 -2 -150 -17z"/>
<path d="M850 1175 l0 -84 -62 -3 -63 -3 -7 -55 c-24 -177 -43 -290 -50 -290
-4 0 -8 7 -8 15 0 22 -9 19 -84 -34 l-69 -49 -67 49 c-37 27 -72 49 -77 49 -5
0 -14 -17 -19 -39 l-10 -38 48 -33 c26 -18 48 -36 48 -39 0 -3 -36 -31 -80
-61 -74 -51 -80 -59 -99 -114 -12 -33 -19 -61 -17 -64 4 -3 151 97 242 165
l31 23 62 -44 c35 -25 65 -46 67 -48 2 -2 -5 -62 -16 -132 -28 -179 -31 -166
39 -166 53 0 59 2 64 23 6 24 85 425 137 697 18 91 35 168 39 173 7 7 26 -90
134 -663 l43 -225 60 -3 60 -3 -58 413 c-31 227 -60 432 -63 456 l-6 42 -65 0
-64 0 0 85 0 85 -45 0 -45 0 0 -85z m-186 -527 c-3 -18 -7 -43 -10 -56 l-4
-22 -30 22 c-17 12 -30 25 -30 30 0 6 69 58 77 58 1 0 0 -15 -3 -32z"/>
<path d="M1242 1250 c41 -12 86 -48 104 -82 8 -16 56 -199 105 -406 49 -207
92 -384 94 -392 4 -12 -19 -28 -85 -60 l-90 -44 0 -43 0 -43 323 0 322 0 84
448 c46 246 86 450 90 454 4 4 45 -196 92 -445 l85 -452 60 -3 60 -3 -52 373
c-29 205 -58 410 -64 456 l-12 82 -64 0 -64 0 0 85 0 85 -45 0 -45 0 0 -85 0
-85 -58 0 -58 0 -53 -377 c-29 -208 -55 -388 -58 -400 l-5 -22 -54 27 -54 26
-66 -32 c-37 -18 -68 -31 -70 -29 -2 2 28 19 66 37 51 24 69 38 65 49 -2 9
-45 189 -95 401 -100 422 -105 435 -184 471 -34 15 -64 18 -171 18 -84 0 -120
-4 -103 -9z"/>
</g>
</svg>
